<?xml version="1.0" encoding="UTF-8"?> <svg xmlns="http://www.w3.org/2000/svg" id="Gruppe_125" data-name="Gruppe 125" width="511.829" height="53.286" viewBox="0 0 511.829 53.286"><path id="Pfad_20" data-name="Pfad 20" d="M25.806.519C28.088.464,28.836.464,30.954.3L30.9,6.634V34.163l.055,5.312h4.454v1.369H20.22V39.475h4.965l.055-5.312V6.634l-.055-4.746H20.22V.519Z" transform="translate(16.691 0.248)" fill="#ff000a"></path><path id="Pfad_21" data-name="Pfad 21" d="M33.367.489C35.649.434,36.616.434,38.788.27l-.055,6.389V16.991c1.077-1.606,2.976-4.345,8.233-4.345,3.834,0,6.919,1.424,8.854,5.257a20.36,20.36,0,0,1,1.825,9.018c0,9.31-4.637,14.677-11.026,14.677a9.722,9.722,0,0,1-3.651-.694,8.211,8.211,0,0,1-4.345-4.053l.164,4H32.965l.055-5.714V6.659l-.055-4.8H28.73V.489Zm7.594,15.754c-2.118,2.227-2.391,5.659-2.391,11.026,0,3.651.11,6.334.968,8.342a5.97,5.97,0,0,0,5.549,4.107c6.389,0,6.389-9.091,6.389-13.363A20.116,20.116,0,0,0,50,17.667a5.081,5.081,0,0,0-4.691-3.249,6.163,6.163,0,0,0-4.345,1.825" transform="translate(23.716 0.223)" fill="#ff000a"></path><path id="Pfad_22" data-name="Pfad 22" d="M71.816,27.389c-1.661,3.943-4.053,8.507-12.1,8.507a12.287,12.287,0,0,1-9.31-3.541c-3.249-3.322-3.834-7.539-3.834-10.916a16.948,16.948,0,0,1,.4-4,13.8,13.8,0,0,1,3.888-7.028A12.862,12.862,0,0,1,59.713,6.98,12.128,12.128,0,0,1,68.4,10.467c3.085,3.14,3.377,6.681,3.541,9.255H52.9c0,3.195,0,6.681,1.2,9.6A7.315,7.315,0,0,0,61.3,34.18a9.573,9.573,0,0,0,3.834-.858c3.322-1.716,4.564-4.856,5.2-6.462Zm-6.681-9.255a16.646,16.646,0,0,0-.968-6.334A5.136,5.136,0,0,0,59.2,8.6c-5.476,0-5.933,6.115-6.225,9.547H65.135Z" transform="translate(38.443 5.762)" fill="#ff000a"></path><path id="Pfad_23" data-name="Pfad 23" d="M71.745,33.878H76.6v1.369H61.34V33.878h4.8l.055-4.856V13.761l-.055-4.8h-4.8v-1.3H66.6a50.74,50.74,0,0,0,5.257-.292L71.8,14c1.424-3.03,3.322-6.919,7.886-6.919,3.779,0,5.148,2.921,5.148,5.367,0,2.118-.858,3.834-2.921,3.834A2.865,2.865,0,0,1,79.065,13.3c0-.4.292-2.172.292-2.574,0-1.661-1.15-1.716-1.479-1.716a3.078,3.078,0,0,0-2.008,1.077c-3.888,3.834-4.053,9.766-4.162,14.622V29Z" transform="translate(50.635 5.844)" fill="#ff000a"></path><path id="Pfad_24" data-name="Pfad 24" d="M84.934,3.26l-.11,7.539h6.115v1.606H84.879l-.11,19.022c.055,1.935.055,5.312,3.14,5.312,2.008,0,3.195-1.424,4.053-3.377l1.2.566c-1.26,2.629-2.629,4.746-7.375,4.746-6.572,0-6.572-4.107-6.572-6.846l.164-19.423H74.93V10.818h4.4l.11-7.539h5.495Z" transform="translate(61.853 2.691)" fill="#ff000a"></path><path id="Pfad_25" data-name="Pfad 25" d="M92.33.42h16.849V1.789h-5.184l-.055,5.549v26.67l.055,5.093h9.419c2.629-.11,5.257-.237,7.539-2.574,2.738-2.793,3.432-7.32,3.943-10.57h1.552v14.8H92.33V39.394h5.2l.055-5.367V7.32l-.055-5.531h-5.2Z" transform="translate(76.217 0.347)" fill="#ff000a"></path><path id="Pfad_26" data-name="Pfad 26" d="M134.25,12.568a51.979,51.979,0,0,0,5.422-.219l-.055,5.933V34.108l.055,4.691h4.746v1.369h-4.8c-2.464.055-3.432.11-5.476.219l-.292-5.093a10.955,10.955,0,0,1-9.766,5.422c-2.738,0-5.148-.858-6.407-2.227-1.825-1.825-1.825-4.637-1.825-5.933l.055-6.919-.164-11.72h-4.29V12.568H115.9c2.629-.055,3.541-.055,5.6-.219l-.055,5.933v9.657c.055,5.476.11,8.233,1.661,9.766a4.589,4.589,0,0,0,3.195,1.15,7.026,7.026,0,0,0,4.856-2.118c2.683-2.629,2.738-5.769,2.793-8.452v-10l-.055-4.345h-5.148V12.568ZM118.715,4.225A3.069,3.069,0,0,1,121.8,1.14a3.1,3.1,0,0,1,3.085,3.085A3.072,3.072,0,0,1,119.628,6.4a3.2,3.2,0,0,1-.913-2.172m10.971,0a3.024,3.024,0,0,1,3.03-3.085,3.085,3.085,0,0,1,0,6.17,3.131,3.131,0,0,1-2.172-.913,3.062,3.062,0,0,1-.858-2.172" transform="translate(92 0.941)" fill="#ff000a"></path><path id="Pfad_27" data-name="Pfad 27" d="M155.351,26.369a15.676,15.676,0,0,1-3.3,5.933,12.111,12.111,0,0,1-8.8,3.432c-7.941,0-13.2-6.115-13.2-14.111,0-8.05,5.093-14.513,13.545-14.513,6.791,0,10.862,4.235,10.862,7.941a2.8,2.8,0,0,1-2.976,2.921c-2.683,0-2.683-2.118-2.738-3.249a11.332,11.332,0,0,0-.219-2.738,4.78,4.78,0,0,0-4.856-3.377c-6.864,0-7.247,8.562-7.247,12.742,0,5.714,1.479,12.632,8.178,12.632a9.448,9.448,0,0,0,3.3-.566c4.107-1.606,5.367-5.2,6.115-7.484Z" transform="translate(107.354 5.869)" fill="#ff000a"></path><path id="Pfad_28" data-name="Pfad 28" d="M149.4.519c2.172-.055,2.848-.055,5.02-.219l-.055,6.334V25.893h3.487l4.564-7.831,1.88-3.432h-5.367V13.261h12.048V14.63h-4.509l-2.172,3.432L161.1,23.374l4.107,5.6,3.943,5.312,3.943,5.2h2.519v1.369H161.391V39.493h4.454l-2.683-4.053-5.878-8.05h-2.921v7.083l.055,5.02h4.509v1.369H144.25V39.493H148.7l.055-5.02V6.634L148.7,1.888H144.25V.519Z" transform="translate(119.076 0.248)" fill="#ff000a"></path><rect id="Rechteck_1" data-name="Rechteck 1" width="16.502" height="3.249" transform="translate(294.323 24.352)" fill="#ff000a"></rect><path id="Pfad_29" data-name="Pfad 29" d="M173.409,27.784c.4,2.391.913,5.769,3.888,8.8a10.849,10.849,0,0,0,8,3.195c6.061,0,8.963-3.888,8.963-7.777,0-4.691-4.235-6.517-10.916-9.2-4.856-2.008-10.862-4.4-10.862-11.537C172.478,4.345,178.028,0,185.439,0c4,0,7.083,1.26,10.168,2.464l.237,8.963h-1.716c-.511-2.629-.913-4.691-2.976-6.736a9.15,9.15,0,0,0-6.626-2.738c-3.651,0-7.7,2.227-7.7,6.462,0,3.706,2.976,5.2,4.509,5.933,1.2.566,7.32,3.085,8.689,3.706,2.574,1.2,8.342,3.888,8.342,10.971,0,6.462-4.965,12.8-14.8,12.8-4.691,0-7.886-1.26-11.373-2.683l-.456-11.373h1.679Z" transform="translate(141.76)" fill="#ff000a"></path><path id="Pfad_30" data-name="Pfad 30" d="M196.634,3.26l-.109,7.539h6.115v1.606h-6.061l-.109,19.022c.055,1.935.055,5.312,3.14,5.312,2.008,0,3.195-1.424,4.053-3.377l1.2.566c-1.26,2.629-2.629,4.746-7.375,4.746-6.572,0-6.572-4.107-6.572-6.846l.164-19.423H186.63V10.818h4.4l.109-7.539h5.495Z" transform="translate(154.06 2.691)" fill="#ff000a"></path><path id="Pfad_31" data-name="Pfad 31" d="M202.6,13.013c2.282-.055,3.085-.055,5.312-.219l-.055,6.006V34.39l.055,4.856h4.564v1.369H197.27V39.245h4.911l.055-4.856V18.8l-.055-4.4H197.27V13.013Zm-1.1-9.036a3.35,3.35,0,1,1,6.7,0,3.35,3.35,0,0,1-6.7,0" transform="translate(162.843 0.495)" fill="#ff000a"></path><path id="Pfad_32" data-name="Pfad 32" d="M217.217,13.31h5.6V14.9h-5.6V35.015l.055,4.509h4.746v1.369H206.83V39.524h4.8l.055-4.509V14.9H206.83V13.31h4.856V8.053c.109-1.935.164-3.888,1.771-5.476C215.282.642,218.02.24,220.7.24a13.346,13.346,0,0,1,4.053.511c4.235,1.26,4.235,4.345,4.235,4.746,0,2.118-1.369,2.464-2.683,2.464-2.464,0-2.464-1.716-2.464-2.848,0-.968,0-3.432-3.03-3.432-3.6,0-3.6,2.683-3.6,6.627Z" transform="translate(170.735 0.198)" fill="#ff000a"></path><path id="Pfad_33" data-name="Pfad 33" d="M227.314,3.26,227.2,10.8h6.115v1.606h-6.061l-.109,19.022c.055,1.935.055,5.312,3.14,5.312,1.99,0,3.195-1.424,4.053-3.377l1.2.566c-1.26,2.629-2.629,4.746-7.375,4.746-6.572,0-6.572-4.107-6.572-6.846l.164-19.423H217.31V10.818h4.4l.109-7.539h5.495Z" transform="translate(179.386 2.691)" fill="#ff000a"></path><path id="Pfad_34" data-name="Pfad 34" d="M250.052,7.5a51.977,51.977,0,0,0,5.422-.219l-.055,5.933V29.04l.055,4.691h4.746V35.1h-4.8c-2.464.055-3.432.11-5.476.219l-.292-5.093a10.955,10.955,0,0,1-9.766,5.422c-2.738,0-5.148-.858-6.389-2.227-1.825-1.825-1.825-4.637-1.825-5.933l.055-6.919L231.56,8.85h-4.29V7.5h4.454c2.629-.055,3.541-.055,5.6-.219l-.055,5.933V22.87c.055,5.476.109,8.233,1.661,9.766a4.589,4.589,0,0,0,3.195,1.15,7.026,7.026,0,0,0,4.856-2.118c2.683-2.629,2.738-5.769,2.793-8.452v-10l-.055-4.345h-5.148V7.5Z" transform="translate(187.608 6.009)" fill="#ff000a"></path><path id="Pfad_35" data-name="Pfad 35" d="M274.722,33.82h4.454v1.369H264.444V33.82h4.509l.055-4.509V18.906c-.055-5.823-.055-7.539-1.479-8.908a3.817,3.817,0,0,0-2.629-.913,6.747,6.747,0,0,0-4.691,2.063c-3.03,3.03-3.14,7.083-3.249,10.679v7.484l.055,4.509h4.691v1.369H246.39V33.82h5.02l.055-4.509V13.941l-.055-4.965h-5.02V7.606h5.422a53.346,53.346,0,0,0,5.422-.219l-.055,5.367c1.479-2.227,3.651-5.6,9.821-5.6,7.722,0,7.722,5.933,7.722,9.091,0,1.369,0,2.793-.055,4.18V29.33Z" transform="translate(203.391 5.902)" fill="#ff000a"></path><path id="Pfad_36" data-name="Pfad 36" d="M289.331,7.435a3.275,3.275,0,0,1,3.6,3.432,1.959,1.959,0,0,1-1.99,2.227c-1.26,0-1.771-.858-1.771-2.118,0-.8-.347-1.533-1.15-1.533-.858,0-1.369.968-1.661,1.424a8.993,8.993,0,0,1,1.314,4.691c0,5.148-3.377,9.146-9.474,9.146a10.3,10.3,0,0,1-6.572-2.063c-2.118.748-4.053,1.771-4.053,3.779,0,2.629,2.976,2.629,5.367,2.629,1.26,0,7.375-.164,8.8-.164,1.88,0,5.476.055,7.831,2.391a9.46,9.46,0,0,1,2.282,6.28,9.231,9.231,0,0,1-2.683,6.572c-3.322,3.322-9.036,3.322-10.679,3.322-10.624,0-13.253-4.746-13.253-7.539,0-4.18,3.888-5.093,5.6-5.476a9.969,9.969,0,0,1-3.651-1.99A7.047,7.047,0,0,1,265.18,27.7c0-3.943,3.377-5.367,5.257-6.17a8.176,8.176,0,0,1-1.99-5.549c0-4.965,3.542-8.908,9.821-8.908a9.544,9.544,0,0,1,7.192,2.574,4.359,4.359,0,0,1,3.87-2.209M269.1,39.892c0,4.637,4.345,6.061,9.419,6.061,7.138,0,11.263-2.793,11.263-6.572a4.112,4.112,0,0,0-1.26-3.085c-1.661-1.661-4-1.716-8.288-1.716-5.823-.073-11.135.055-11.135,5.312M273.833,16.4c0,3.487.621,6.919,4.29,6.919,4.162,0,4.162-4.564,4.162-8.507,0-1.771,0-6.517-4.162-6.517s-4.29,4.564-4.29,8.105" transform="translate(218.902 5.836)" fill="#ff000a"></path><path id="Pfad_37" data-name="Pfad 37" d="M16.283,10.849l4.509,14.458H11.428ZM18,.17,6.517,34.615,4.746,39.58H0v1.371H12.722V39.58H6.789L8.233,34.8l2.629-7.886h10.4L23.729,34.8l1.314,4.8H19.168V40.97H37.386V39.6h-5.15l-1.771-5.093L19.149.17Z" transform="translate(0 0.14)" fill="#ff000a"></path></svg> 