<?xml version="1.0" encoding="UTF-8"?>
<svg width="251px" height="104px" viewBox="0 0 251 104" version="1.1" xmlns="http://www.w3.org/2000/svg" xmlns:xlink="http://www.w3.org/1999/xlink">
    <title>Blatten_Logo_2020</title>
    <defs>
        <path d="M2.86704152,1.67600082 C2.26531086,1.49280035 0.0524948571,0.549040353 0.0524948571,0.549040353 L0.0899297143,41.3694361 C1.441744,55.6549092 13.1990621,64.6678172 27.9581011,69.4060475 C42.7185267,64.6678172 54.7753236,54.9665195 56.1271379,40.6782707 L56.2144859,0.612882941 C56.2144859,0.612882941 53.9767133,1.48863671 53.3375478,1.67600082 C42.8932227,4.80706341 27.9456229,0.361676235 27.9456229,0.361676235 C27.9456229,0.361676235 13.1228059,4.80706341 2.86704152,1.67600082" id="path-1"></path>
    </defs>
    <g id="Blatten_Logo_2020" stroke="none" stroke-width="1" fill="none" fill-rule="evenodd">
        <g id="Group" transform="translate(0.000000, -0.192781)">
            <rect id="Rectangle" stroke="#FFFFFF" stroke-width="0.5" fill="#FFFFFF" stroke-linecap="round" x="0" y="0.0967761875" width="251" height="66.766"></rect>
            <path d="M0.502,22.4357762 L232.928,22.4357762" id="Stroke-2" stroke="#1A1919" stroke-linecap="round"></path>
            <path d="M4.24664418,14.3484382 C6.48999539,14.3484382 7.2958049,12.2176213 7.2958049,10.383964 C7.2958049,7.9573959 6.586861,6.18148045 4.3266636,6.18148045 C1.96538904,6.18148045 1.35611844,8.4305978 1.35611844,10.383964 C1.35611844,12.3556385 2.14367791,14.3484382 4.24664418,14.3484382 Z M8.534,14.5850391 C8.534,17.3862254 7.27615101,19.6747762 3.83391249,19.6747762 C2.51710183,19.6747762 1.31681066,19.300158 0.805809508,19.1424241 L0.90407896,17.9002691 C1.67058069,18.2931957 2.7726024,18.6100719 3.85356638,18.6100719 C7.04030433,18.6100719 7.31405494,16.2820876 7.31405494,13.4414679 L7.27615101,13.4414679 C6.60791874,14.9005071 5.50589702,15.4145508 4.22699029,15.4145508 C1.0220023,15.4145508 0,12.6119562 0,10.383964 C0,7.3250517 1.17923343,5.11677619 4.12872084,5.11677619 C5.46658924,5.11677619 6.33136042,5.29281856 7.25509327,6.49694838 L7.2958049,6.49694838 L7.2958049,5.3519688 L8.534,5.3519688 L8.534,14.5850391 L8.534,14.5850391 Z" id="Fill-3" fill="#1A1919"></path>
            <path d="M32.8096776,9.67605025 C32.8096776,7.91998982 32.1170273,6.18225105 30.3120219,6.18225105 C28.524847,6.18225105 27.4303224,8.0186449 27.4303224,9.67605025 L32.8096776,9.67605025 Z M33.4049454,15.1048984 C32.5600492,15.4600567 31.464153,15.6587762 30.5616503,15.6587762 C27.3137377,15.6587762 26.104,13.408031 26.104,10.3877762 C26.104,7.30691897 27.7567596,5.11677619 30.2352131,5.11677619 C33.0016995,5.11677619 34.136,7.40698341 34.136,10.1101326 L34.136,10.7429345 L27.4303224,10.7429345 C27.4303224,12.8738842 28.5440492,14.591892 30.6576612,14.591892 C31.5409617,14.591892 32.8288798,14.2170027 33.4049454,13.8421134 L33.4049454,15.1048984 L33.4049454,15.1048984 Z" id="Fill-4" fill="#1A1919"></path>
            <path d="M64.0567112,15.1567762 L64.0567112,8.63599391 C64.0567112,7.2505508 63.5396517,6.1548287 61.9925661,6.1548287 C60.6733141,6.1548287 59.3745262,7.29037028 59.3745262,9.73171601 L59.3745262,15.1567762 L58.1698731,15.1567762 L58.1698731,8.63599391 C58.1698731,7.2505508 57.6555422,6.1548287 56.1070923,6.1548287 C54.7878403,6.1548287 53.4890524,7.29037028 53.4890524,9.73171601 L53.4890524,15.1567762 L52.2843993,15.1567762 L52.2843993,7.65561098 C52.2843993,6.9045333 52.2843993,6.13560551 52.208,5.34608144 L53.3744534,5.34608144 L53.3744534,7.00064927 L53.4126531,7.01987247 C53.7946495,6.34706065 54.3676442,5.11677619 56.4508891,5.11677619 C57.3103811,5.11677619 58.7251322,5.48201689 59.0307294,7.19288122 L59.068929,7.19288122 C59.5082249,6.03948954 60.6542143,5.11677619 62.1835643,5.11677619 C64.1522103,5.11677619 65.26,6.50084621 65.26,8.40531557 L65.26,15.1567762 L64.0567112,15.1567762" id="Fill-5" fill="#1A1919"></path>
            <path d="M89.5356776,9.67605025 C89.5356776,7.91998982 88.8443989,6.18225105 87.0380219,6.18225105 C85.250847,6.18225105 84.1563224,8.0186449 84.1563224,9.67605025 L89.5356776,9.67605025 Z M90.1309454,15.1048984 C89.2860492,15.4600567 88.190153,15.6587762 87.2876503,15.6587762 C84.0411093,15.6587762 82.83,13.408031 82.83,10.3877762 C82.83,7.30691897 84.4827596,5.11677619 86.9612131,5.11677619 C89.7276995,5.11677619 90.862,7.40698341 90.862,10.1101326 L90.862,10.7429345 L84.1563224,10.7429345 C84.1563224,12.8738842 85.2700492,14.591892 87.3836612,14.591892 C88.2683333,14.591892 89.5548798,14.2170027 90.1309454,13.8421134 L90.1309454,15.1048984 L90.1309454,15.1048984 Z" id="Fill-6" fill="#1A1919"></path>
            <path d="M108.934,15.1567762 L110.263798,15.1567762 L110.263798,5.33613423 L108.934,5.33613423 L108.934,15.1567762 Z M108.934,2.71876269 L110.263798,2.71876269 L110.263798,1.10077619 L108.934,1.10077619 L108.934,2.71876269 Z" id="Fill-7" fill="#1A1919"></path>
            <path d="M128.591878,7.65561098 C128.591878,6.9045333 128.591878,6.13560551 128.512,5.34608144 L129.731563,5.34608144 L129.731563,7.09676525 L129.771502,7.09676525 C130.190861,6.21249829 130.9497,5.11677619 133.067888,5.11677619 C135.585466,5.11677619 136.544,6.73152455 136.544,8.88589544 L136.544,15.1567762 L135.285924,15.1567762 L135.285924,9.19346656 C135.285924,7.34803986 134.605536,6.1548287 132.868194,6.1548287 C130.57028,6.1548287 129.85138,8.09774446 129.85138,9.73171601 L129.85138,15.1567762 L128.591878,15.1567762 L128.591878,7.65561098" id="Fill-8" fill="#1A1919"></path>
            <path d="M158.942664,14.5907211 C161.143899,14.5907211 161.911805,12.2189898 161.911805,10.3819915 C161.911805,8.54358226 161.143899,6.17185095 158.942664,6.17185095 C156.581389,6.17185095 155.972118,8.42506624 155.972118,10.3819915 C155.972118,12.3375058 156.581389,14.5907211 158.942664,14.5907211 Z M163.15,15.4217441 L161.911805,15.4217441 L161.911805,13.820367 L161.871093,13.820367 C161.202861,15.1042905 160.180859,15.6587762 158.744721,15.6587762 C155.991772,15.6587762 154.616,13.3660556 154.616,10.3819915 C154.616,7.31750581 155.795233,5.10520677 158.744721,5.10520677 C160.711514,5.10520677 161.694208,6.54715168 161.871093,7.04096843 L161.911805,7.04096843 L161.911805,0.598776187 L163.15,0.598776187 L163.15,15.4217441 L163.15,15.4217441 Z" id="Fill-9" fill="#1A1919"></path>
            <text id="-" font-family="LucidaGrande, Lucida Grande" font-size="14" font-weight="normal"></text>
            <path d="M187.425451,9.67605025 C187.425451,7.91998982 186.734054,6.18225105 184.927369,6.18225105 C183.14126,6.18225105 182.045177,8.0186449 182.045177,9.67605025 L187.425451,9.67605025 Z M188.02082,15.1048984 C187.17578,15.4600567 186.081068,15.6587762 185.178412,15.6587762 C181.929944,15.6587762 180.72,13.408031 180.72,10.3877762 C180.72,7.30691897 182.37167,5.11677619 184.850547,5.11677619 C187.617506,5.11677619 188.752,7.40698341 188.752,10.1101326 L188.752,10.7429345 L182.045177,10.7429345 C182.045177,12.8738842 183.159094,14.591892 185.273067,14.591892 C186.15789,14.591892 187.444657,14.2170027 188.02082,13.8421134 L188.02082,15.1048984 L188.02082,15.1048984 Z" id="Fill-10" fill="#1A1919"></path>
            <path d="M70.4316433,44.0196665 C71.3415034,44.3893784 72.3271851,44.6423391 73.3710871,44.6423391 C74.4705013,44.6423391 76.1588875,44.0961107 76.1588875,42.7145559 C76.1588875,41.1175674 74.9254314,40.5921874 73.2383992,40.5921874 L71.9480768,40.5921874 L71.9480768,38.4503605 L73.1625775,38.4503605 C74.9457408,38.4503605 76.1020213,37.8471464 76.1020213,36.6601768 C76.1020213,35.2966906 75.0215624,34.8686031 73.8260171,34.8686031 C72.7834691,34.8686031 71.777478,35.1215639 70.8486625,35.5885683 L70.6970192,33.4078243 C71.7585226,32.9797369 73.0298896,32.7267762 74.3946797,32.7267762 C76.0261996,32.7267762 78.7571337,33.3119216 78.7571337,36.2112409 C78.7571337,38.0611901 77.6387641,38.9368235 76.2915754,39.4635934 L76.2915754,39.5025104 C77.9799616,39.7360126 78.814,41.0786504 78.814,42.7340144 C78.814,45.9655184 75.9503779,46.7827762 73.7501955,46.7827762 C72.593915,46.7827762 71.2656817,46.6284979 70.28,46.3352303 L70.4316433,44.0196665" id="Fill-11" fill="#1A1919"></path>
            <path d="M91.6775781,37.1660982 C91.6775781,35.8804461 91.1384438,34.751852 89.809863,34.751852 C88.556926,34.751852 88.0370466,35.9777387 88.0370466,37.1855568 C88.0370466,38.508736 88.5761808,39.7360126 89.8676274,39.7360126 C91.1783288,39.7360126 91.6775781,38.5281946 91.6775781,37.1660982 Z M86.3618795,44.0961107 C87.0743068,44.407447 87.805989,44.6423391 88.7123397,44.6423391 C91.0421699,44.6423391 91.8329918,42.4615951 91.910011,40.4365193 L91.870126,40.3976023 C91.2360932,41.3510697 90.4067616,41.7610885 89.2707288,41.7610885 C86.7277205,41.7610885 85.34,40.125183 85.34,37.6136442 C85.34,34.674018 86.7662301,32.7267762 89.809863,32.7267762 C93.5466685,32.7267762 94.376,35.8623775 94.376,39.0535746 C94.376,42.7340144 93.2000822,46.7827762 88.8457479,46.7827762 C87.8637534,46.7827762 86.9395233,46.6284979 86.0139178,46.2963132 L86.3618795,44.0961107 L86.3618795,44.0961107 Z" id="Fill-12" fill="#1A1919"></path>
            <polyline id="Fill-13" fill="#1A1919" points="104.961044 33.2287762 107.428 33.2287762 107.428 46.7827762 104.642911 46.7827762 104.642911 36.3160993 102.295255 38.1806927 100.902 36.4131413 104.961044 33.2287762"></polyline>
            <path d="M122.300953,37.1660982 C122.300953,35.8804461 121.761819,34.751852 120.431863,34.751852 C119.180301,34.751852 118.659047,35.9777387 118.659047,37.1855568 C118.659047,38.508736 119.199556,39.7360126 120.489627,39.7360126 C121.800329,39.7360126 122.300953,38.5281946 122.300953,37.1660982 Z M116.983879,44.0961107 C117.696307,44.407447 118.427989,44.6423391 119.33434,44.6423391 C121.665545,44.6423391 122.454992,42.4615951 122.532011,40.4365193 L122.493501,40.3976023 C121.858093,41.3510697 121.028762,41.7610885 119.892729,41.7610885 C117.349721,41.7610885 115.962,40.125183 115.962,37.6136442 C115.962,34.674018 117.38823,32.7267762 120.431863,32.7267762 C124.170044,32.7267762 124.998,35.8623775 124.998,39.0535746 C124.998,42.7340144 123.823458,46.7827762 119.469123,46.7827762 C118.485753,46.7827762 117.561523,46.6284979 116.635918,46.2963132 L116.983879,44.0961107 L116.983879,44.0961107 Z" id="Fill-14" fill="#1A1919"></path>
            <path d="M146.584708,44.728306 C148.330056,44.728306 148.82731,42.830461 148.82731,41.42789 C148.82731,40.0634171 148.351306,38.1853265 146.624375,38.1853265 C144.917278,38.1853265 144.242939,40.0041535 144.242939,41.42789 C144.242939,42.86997 144.81811,44.728306 146.584708,44.728306 Z M141.564,31.7227762 L144.223105,31.7227762 L144.223105,37.671709 L144.262772,37.671709 C144.996612,36.7037375 145.930203,36.1308564 147.318548,36.1308564 C150.453657,36.1308564 151.604,38.619926 151.604,41.42789 C151.604,44.2146885 150.453657,46.7827762 147.318548,46.7827762 C146.188038,46.7827762 144.956945,46.3890968 144.183438,45.3011871 L144.143771,45.3011871 L144.143771,46.5457219 L141.564,46.5457219 L141.564,31.7227762 L141.564,31.7227762 Z" id="Fill-15" fill="#1A1919"></path>
            <polygon id="Fill-16" fill="#1A1919" points="158.13 46.7827762 160.64 46.7827762 160.64 32.2247762 158.13 32.2247762"></polygon>
            <path d="M171.305939,44.8668106 C172.102295,44.8668106 172.723841,44.5148986 173.133117,43.9660834 C173.56043,43.399114 173.67697,42.6757392 173.67697,41.892316 L172.549031,41.892316 C171.383632,41.892316 169.653571,42.0892192 169.653571,43.633722 C169.653571,44.4953479 170.372233,44.8668106 171.305939,44.8668106 Z M168.253705,37.0032523 C169.265105,36.5326397 170.624736,36.2407762 171.733252,36.2407762 C174.784099,36.2407762 176.048001,37.5115697 176.048001,40.4846678 L176.048001,41.775012 C176.048001,42.7930432 176.067424,43.5555193 176.08546,44.2998412 C176.106271,45.0623173 176.14373,45.7661414 176.202,46.5481682 L173.91005,46.5481682 C173.812933,46.0203001 173.812933,45.3555774 173.79351,45.0427666 L173.754663,45.0427666 C173.152541,46.1571548 171.849792,46.7827762 170.66497,46.7827762 C168.896062,46.7827762 167.166,45.7074894 167.166,43.7901274 C167.166,42.2847258 167.884662,41.4035493 168.876638,40.9147825 C169.867227,40.4260158 171.150553,40.3282625 172.238258,40.3282625 L173.67697,40.3282625 C173.67697,38.7041605 172.958308,38.1567417 171.422479,38.1567417 C170.313963,38.1567417 169.206835,38.5868565 168.332786,39.2529757 L168.253705,37.0032523 L168.253705,37.0032523 Z" id="Fill-17" fill="#1A1919"></path>
            <path d="M183.650584,38.46223 L181.724,38.46223 L181.724,36.5610635 L183.650584,36.5610635 L183.650584,34.564354 L186.259673,33.7307762 L186.259673,36.5610635 L188.576856,36.5610635 L188.576856,38.46223 L186.259673,38.46223 L186.259673,43.1175265 C186.259673,43.9718744 186.493199,44.7666811 187.487071,44.7666811 C187.954122,44.7666811 188.401712,44.6697535 188.674158,44.493899 L188.752,46.5501498 C188.207108,46.7052341 187.603834,46.7827762 186.824026,46.7827762 C184.78068,46.7827762 183.650584,45.5227168 183.650584,43.5440081 L183.650584,38.46223" id="Fill-18" fill="#1A1919"></path>
            <path d="M195.699593,38.46223 L193.772,38.46223 L193.772,36.5610635 L195.699593,36.5610635 L195.699593,34.564354 L198.308166,33.7307762 L198.308166,36.5610635 L200.624891,36.5610635 L200.624891,38.46223 L198.308166,38.46223 L198.308166,43.1175265 C198.308166,43.9718744 198.541645,44.7666811 199.533932,44.7666811 C200.00228,44.7666811 200.448392,44.6697535 200.722174,44.493899 L200.8,46.5501498 C200.255215,46.7052341 199.650671,46.7827762 198.872407,46.7827762 C196.828075,46.7827762 195.699593,45.5227168 195.699593,43.5440081 L195.699593,38.46223" id="Fill-19" fill="#1A1919"></path>
            <path d="M213.33867,40.5237692 C213.259878,39.2529757 212.667535,38.1567417 211.190193,38.1567417 C209.711444,38.1567417 208.962924,39.174773 208.844737,40.5237692 L213.33867,40.5237692 Z M215.11148,45.9811988 C214.146284,46.5104633 213.043202,46.7827762 211.623547,46.7827762 C208.273498,46.7827762 206.322,44.8668106 206.322,41.5613511 C206.322,38.6455085 207.87954,36.2407762 211.03261,36.2407762 C214.796314,36.2407762 215.86,38.8019138 215.86,42.3238272 L208.844737,42.3238272 C208.962924,43.9479292 210.106809,44.8668106 211.741734,44.8668106 C213.023504,44.8668106 214.126586,44.3961981 215.11148,43.8487794 L215.11148,45.9811988 L215.11148,45.9811988 Z" id="Fill-20" fill="#1A1919"></path>
            <path d="M222.386,36.4679378 L224.812056,36.4679378 L224.812056,37.8023424 L224.85024,37.8023424 C225.652106,36.6774162 226.741717,36.2407762 228.078162,36.2407762 C230.408757,36.2407762 231.422,37.8785163 231.422,40.0889214 L231.422,46.2807762 L228.8623,46.2807762 L228.8623,41.0410959 C228.8623,39.8413561 228.843208,38.2212992 227.199927,38.2212992 C225.346633,38.2212992 224.9457,40.2222259 224.9457,41.4804564 L224.9457,46.2807762 L222.386,46.2807762 L222.386,36.4679378" id="Fill-21" fill="#1A1919"></path>
            <path d="M58.6465556,74.6862503 C57.2932487,89.0230095 45.2231398,98.7572442 30.4464171,103.508776 C15.6710825,98.7572442 3.90078303,89.7137363 2.54747619,75.3797623 L2.51,34.4207764 C2.51,34.4207764 4.72525919,35.3677406 5.32765423,35.5515631 C15.5947421,38.693256 30.433925,34.2327762 30.433925,34.2327762 C30.433925,34.2327762 45.3980286,38.693256 55.8538855,35.5515631 C56.4937567,35.3635628 58.734,34.4834432 58.734,34.4834432 L58.6465556,74.6862503" id="Fill-22" fill="#0067A5"></path>
            <g id="Group-29" transform="translate(2.510000, 34.232776)">
                <mask id="mask-2" fill="white">
                    <use xlink:href="#path-1"></use>
                </mask>
                <g id="Clip-24"></g>
                <path d="M1.23654552,3.17768953 L1.17554057,3.17768953 C1.29755048,5.27616765 3.64069524,5.15264612 4.50308343,6.63351659 C5.18245676,8.66954 4.56547486,11.2621042 5.24346171,13.2995155 C5.92144857,13.97819 6.10723638,14.9052954 6.72283181,15.5201273 C7.4632101,15.0260412 7.40081867,13.2995155 8.69578743,13.6090133 L10.3609453,14.9052954 C10.7311345,15.5201273 10.4829552,16.5693664 11.1623286,16.8774762 C12.2105046,16.7567305 13.0118878,17.8642606 13.4430819,18.6053898 C13.874276,20.7052558 12.765095,23.4185658 14.430253,25.0854125 C15.2302497,24.6551689 15.1068533,23.2964321 16.1564158,23.1729106 C17.2032053,24.0972402 19.3619488,24.0972402 19.9165392,25.8265416 C20.8399324,27.1838906 20.4087383,29.0977804 20.655531,30.8867607 C20.9023238,30.824306 21.3959093,31.0741248 21.5193057,30.6397176 C21.3959093,29.2226898 23.1830771,30.2066984 23.9234554,29.8375216 C24.848235,31.0741248 25.9588025,32.428698 26.6354029,33.7874348 C27.2523848,33.4154824 27.6835789,32.4911527 28.545967,32.6757411 C28.7317549,31.7514114 29.6565345,31.3808468 30.15012,30.7618513 C31.198296,30.6993966 31.3216924,31.6889567 32.1840806,31.8735451 L33.1712516,32.9255599 C34.0960312,35.4542815 32.9854638,39.0946969 35.1428208,40.7587679 L35.3286086,46.0077389 C36.1299918,46.0701936 36.1923832,45.0181788 37.1171629,45.4484224 C38.3497402,45.6982412 39.5823175,46.4379825 39.8901152,47.6718099 C40.7538899,48.0423745 41.6786695,48.1048292 42.2956514,48.7835036 C42.5410577,49.463566 42.9112469,50.0159432 43.0970347,50.7584602 C43.9594229,50.3878956 44.8842025,49.7730638 45.6855857,49.1512925 C46.7337617,49.4011113 47.8429427,49.2137472 48.5209295,50.0159432 C49.6938884,50.3254409 49.2446701,50.9680305 50.1070583,51.6425413 C50.2318411,51.9548148 54.0363318,59.8365987 53.9129354,59.8990534 C47.6252659,65.88499 37.3015642,64.5193138 30.5813141,69.3324898 L-4.12773086,69.0243799 L-4.25112724,67.4810547 L-3.32634762,0.711422588 C-2.27678514,0.0938149412 -0.859806476,0.586513176 -0.0584232381,1.26379976 C0.435162286,1.88279529 0.803964952,2.56285765 1.23654552,3.17768953" id="Fill-23" fill="#1A1919" mask="url(#mask-2)"></path>
                <path d="M-0.736410095,1.63575224 C-0.550622286,2.80990071 0.435162286,3.11523482 0.55717219,4.22692859 C0.803964952,4.28938329 0.92874781,4.72240259 0.989752762,5.02912459 C0.92874781,5.46353176 0.619563619,5.77025376 0.74296,6.14081835 C1.3599419,6.32540671 1.60534819,5.58705329 2.28472152,5.89377529 C3.76409162,6.07836365 3.64069524,7.62168882 3.94849295,8.79444941 C3.76409162,9.96582212 4.13289429,11.1413585 4.01088438,12.1878218 C3.70170019,11.5077594 3.82509657,10.2767078 3.45490743,9.41205706 C3.33151105,9.41205706 3.2705061,9.28992341 3.08610476,9.35099024 C2.77692057,10.5834298 3.45490743,11.5077594 3.39390248,12.6819079 C5.92144857,14.5333429 6.04484495,17.9267153 6.22924629,21.0119778 L6.29163771,25.4573649 C6.35402914,25.6419533 6.47603905,25.704408 6.66044038,25.704408 C7.1540259,22.9258675 7.032016,19.7156956 6.96962457,16.8164094 C7.40081867,16.0752802 7.64761143,15.3355389 8.26320686,14.7817739 C8.88018876,14.473664 9.12698152,15.2730842 9.49717067,15.5201273 C9.74396343,16.7567305 9.92836476,18.2986678 9.06597657,19.1633185 C9.43477924,19.4700405 9.80635486,18.9162754 10.0517611,18.791366 C10.5453467,18.3583467 11.0375457,17.6796722 11.5935227,17.98917 C12.3325145,18.5457108 12.5793072,19.4103615 12.4559109,20.4554369 C11.9013204,20.3971459 12.4559109,18.7289113 11.716919,19.3479068 C11.4077349,21.7544948 12.7027036,23.6059299 13.4430819,25.6419533 C13.7508796,26.9368475 13.9976724,28.417718 13.9366674,29.7750669 C13.6884882,29.5918665 13.3196855,29.1602351 12.9494964,29.4669571 C12.5183023,29.8375216 12.4559109,30.4537414 12.3949059,30.9492154 L12.5793072,31.0741248 L13.1338977,30.4537414 C14.6756592,31.7514114 15.0458484,33.7249801 15.2302497,35.7013246 L15.7862267,36.5659753 C16.3394307,34.7769949 15.0458484,33.1726029 15.1692448,31.3211679 C15.3536461,28.9756467 13.7508796,25.704408 16.1564158,24.2207618 L16.8940211,25.3324555 C17.2642103,24.8397573 17.6954044,25.0854125 18.1889899,25.2700008 C19.4839587,26.506604 19.7931429,28.6050821 19.4839587,30.3940625 C19.7931429,31.9359998 19.2371659,33.8498895 19.4839587,35.2044627 C19.2995573,35.2669174 19.0527646,34.7769949 18.9293682,35.2044627 C19.4229537,35.7637793 20.1009406,36.3786112 20.9023238,36.62843 C21.3335179,38.6019987 21.3945229,40.6366342 21.703707,42.6726576 C21.8271034,42.9197007 21.8271034,43.3541079 22.1362876,43.2916532 C22.6284867,42.4894572 22.0738962,41.6858733 22.320689,40.7587679 C22.9362844,41.3153087 22.320689,42.9197007 23.1830771,43.2916532 C23.800059,43.5373084 23.4922613,44.5240927 23.6766627,45.0181788 L23.9234554,45.2666098 C24.7248387,44.6490021 23.800059,43.5969873 24.1078568,42.6726576 C24.6000558,44.0313945 25.1560328,45.7606959 25.5872269,47.2374027 C25.5872269,47.3650879 25.7120097,47.2998574 25.8340196,47.2998574 C26.0808124,46.4379825 25.6496183,45.3887434 25.5248354,44.461638 L24.4780459,41.2556298 C23.6766627,40.5158885 23.1220722,39.4666494 22.0738962,38.7865871 C22.0738962,37.2432619 21.5193057,35.8859129 20.5945261,34.7769949 C20.224337,33.9095685 20.655531,32.8006505 20.655531,31.8110904 C21.272513,31.4419136 22.6284867,31.9359998 22.3816939,30.7618513 C22.812888,30.5772629 23.368865,30.6397176 23.6766627,30.8867607 C25.896411,33.1726029 26.2652137,36.6881089 26.7587992,39.8968929 C26.8821956,40.0190266 26.9432006,40.143936 27.1289884,40.0814813 C27.4367861,38.2925009 26.8211907,36.4410659 26.8821956,34.6520855 C27.1899933,34.2801331 27.3133897,33.6028465 27.9303716,33.7874348 C28.7317549,34.7769949 29.5955295,35.9483676 29.8423223,37.3029408 C30.0267236,37.430626 30.2735164,37.2432619 30.2735164,37.0558978 C29.7813173,35.7637793 30.3345213,33.9095685 29.5955295,32.6757411 C29.4707467,32.1205881 29.9643322,31.8735451 30.3345213,31.7514114 C31.8138914,32.3051765 32.5542697,33.8498895 32.6166611,35.5167362 C32.9244589,37.6152144 33.2932615,39.7719835 33.355653,41.9329164 C33.4180444,41.9953711 33.6634507,42.1175047 33.7882335,41.9953711 L34.0350263,41.0710414 C34.403829,42.4894572 34.5882303,44.0313945 34.5882303,45.5733318 C34.7740181,47.4275426 34.403829,49.463566 35.2052122,51.0055033 C35.452005,50.6349387 35.5143964,49.9562642 35.3286086,49.4011113 C35.0818158,48.3518722 35.452005,47.1152691 36.2520017,46.5601161 C36.8703701,46.0701936 37.6093619,46.6253466 38.2887352,46.7474802 C39.027727,47.6121309 39.2135149,48.8459584 40.1382945,49.4011113 C40.5070971,49.463566 40.4460922,48.9056373 40.5694886,48.7835036 C41.741061,48.7835036 41.8020659,50.2033073 42.1098636,51.067958 C42.4800528,52.1171971 42.23326,53.4134792 42.2956514,54.5210093 C42.8502419,54.7708281 43.4048324,54.9554165 43.5282288,55.5105694 C43.4048324,55.8200672 43.7140166,55.9422008 43.8360265,56.0671102 C44.2672206,55.9422008 44.1452107,55.2024595 43.8984179,54.9554165 C43.7750215,54.5210093 43.5892337,54.2753541 43.281436,53.9686321 L43.281436,51.8076993 C44.4530084,50.8181392 45.8713735,49.7730638 47.535145,50.5128051 C48.4599246,50.9430486 51.2800171,55.7714913 51.5878149,56.5112326 C47.8886964,59.844926 44.0814328,61.6450094 40.3823143,64.9773149 C38.5341415,63.1883346 33.8492385,59.2731185 33.2932615,56.5598085 C33.1088602,54.2753541 31.259301,53.1664361 29.7813173,51.9922876 C29.162949,51.4995894 28.4239571,50.7584602 27.6211874,50.572484 C26.3276051,51.4995894 25.5872269,54.2156752 23.6142712,53.2288908 C22.751883,53.7188133 21.9504998,54.4002635 21.211508,54.9554165 C20.7179225,54.7083734 21.0257202,53.9686321 20.5945261,53.5342249 C20.0385491,52.9193931 19.176161,52.7320289 19.0527646,51.8076993 C19.176161,49.7730638 18.4371691,47.9813076 18.3747777,45.9452842 C17.2642103,43.8468061 14.7990556,43.1070648 13.3806905,41.1931751 C13.1962891,41.0710414 13.3196855,40.7587679 13.3196855,40.5158885 L13.813271,40.6366342 L14.0586773,39.6512378 C14.5522629,40.143936 13.813271,41.3153087 14.6756592,41.4402181 L14.983457,40.8212226 C15.3536461,40.8212226 15.6004389,41.9329164 16.0940244,41.1931751 C14.922452,39.1571516 14.1210688,37.0558978 12.9494964,35.0837169 C10.8531444,33.6653012 9.2503779,31.5057562 6.41364762,31.2587132 L5.05906038,30.6993966 C4.07188933,27.8625651 4.07188933,24.4678048 2.839312,21.7544948 C2.71591562,21.5671307 2.59251924,21.3214755 2.28472152,21.2617966 C2.77692057,24.4081259 3.76409162,27.3684789 4.01088438,30.5772629 C4.19528571,32.8631052 4.19528571,35.6388699 4.19528571,37.8594816 L4.44207848,38.0454579 C5.12006533,37.4903049 4.87327257,36.1940228 4.935664,35.3293721 L4.935664,32.1205881 L5.12006533,31.9984545 C6.41364762,32.3676312 7.71000286,32.4911527 8.94258019,33.1726029 L12.1481131,35.8234582 C12.5793072,37.2432619 12.4559109,38.9697875 12.3949059,40.4534338 C11.9013204,40.2063907 11.2233335,39.4666494 10.6063516,39.6512378 C12.3949059,41.8704616 15.2302497,43.8468061 17.1408139,45.8828295 L17.572008,46.7474802 L16.1564158,50.4503504 C17.2032053,51.9922876 19.1137695,52.6709621 20.0385491,54.3378088 C20.4087383,56.0046555 20.5321347,57.8560906 21.0257202,59.5201615 L21.272513,59.2731185 L21.1491166,56.0046555 C22.3816939,55.3245932 23.1830771,53.5966796 24.90924,54.0907658 C25.2184242,55.0178712 25.5248354,56.0046555 26.2042088,56.6194874 C26.5120065,56.4348991 26.449615,55.8797461 26.2652137,55.6327031 C25.957416,54.9554165 25.4638305,54.3378088 25.8340196,53.5342249 L27.3743947,51.6244988 L27.992763,51.7452446 C29.4707467,52.7944836 30.7047105,53.9061774 31.8762829,55.1400048 C32.9244589,57.4216834 33.2932615,60.2002239 34.5882303,62.3611567 C35.0818158,61.9892042 34.7740181,61.4340513 34.7130131,61.0024199 C34.5882303,60.8775105 34.5882303,60.7567647 34.5882303,60.6318553 L34.896028,60.6318553 C35.5143964,61.496506 36.3143931,62.3611567 36.6235773,63.3479411 C36.6859688,63.4700747 38.6034653,65.153576 38.4814554,65.3992312 L30.2735164,68.9022462 L-3.5717539,68.5927485 L-3.75754171,68.5927485 L-2.8327621,1.08198718 C-2.09238381,1.14166612 -1.41439695,1.45116388 -0.736410095,1.63575224" id="Fill-25" fill="#FFFFFE" mask="url(#mask-2)"></path>
                <path d="M43.3438274,6.45031612 C44.0218143,6.94301435 43.8984179,7.92979871 44.1452107,8.66954 C44.8842025,8.79306153 45.5011844,9.16362612 46.1167798,9.65910012 C46.4245775,10.3363867 46.7337617,11.2024253 46.4245775,12.0046213 C46.1777848,13.1135393 45.1309952,13.6090133 44.2062156,13.97819 C43.8360265,14.9052954 43.8984179,16.0128255 44.1452107,17.0023856 C45.1920002,17.2494287 46.3635726,17.0023856 47.4727535,17.0023856 C48.027344,15.8920798 49.1379114,15.0884959 50.5562766,15.2120174 C51.5420611,15.2120174 52.2824394,15.9517587 52.6512421,16.7567305 C53.7618095,17.2494287 55.425581,17.6796722 55.425581,19.2854521 C55.5503638,20.3346912 55.0567783,21.2617966 54.5008013,21.9390832 C54.0696072,22.4317814 53.3306154,22.4317814 52.776025,22.6788245 C52.220048,23.4185658 52.0356467,24.1583071 51.110867,24.4678048 C49.8782897,24.902212 48.4599246,24.3456712 47.7195463,23.4810205 C47.3507436,21.9390832 45.5011844,22.8037339 44.390617,22.5566908 L44.0218143,22.8634128 C44.329612,23.8529729 43.6516251,24.8397573 44.2062156,25.704408 C45.0075989,26.0097421 46.2415627,26.0721968 46.3039541,27.2463453 C46.6103653,28.1082202 46.2415627,28.9104162 45.9933834,29.6529333 C45.5621893,30.1470194 45.0075989,30.7618513 44.390617,30.824306 C43.9594229,31.8735451 43.3438274,33.2322819 42.1098636,33.3558034 C41.0006827,33.3558034 39.8291103,33.4779371 39.1511234,32.6160621 C38.5341415,31.9984545 39.088732,30.4537414 37.7951497,30.5772629 C37.2391728,30.1470194 36.6235773,29.2823687 36.6859688,28.2955844 C36.4987945,27.2463453 37.4249606,26.3816946 38.0419425,25.8889964 C38.4731366,25.8889964 38.7809343,25.3949102 38.9043307,24.9646667 L38.7199293,22.6788245 C37.7951497,22.306872 36.8079787,22.6163698 35.9455905,22.4317814 C35.391,23.2964321 35.0208109,24.4081259 33.9102434,24.6551689 C32.6776661,24.8397573 31.259301,24.6551689 30.5813141,23.4810205 C30.5203091,23.0507769 30.3345213,22.5566908 30.0267236,22.2471931 C29.2253404,22.306872 28.6707499,21.8141738 28.2395558,21.3839302 C27.6835789,20.7649347 27.8693667,19.7781504 27.8069752,18.9134996 C28.1771644,17.8018059 29.162949,17.3118834 30.2735164,17.1245193 C30.5813141,16.1377349 31.3216924,15.3355389 32.307477,14.9052954 C33.2322566,14.9052954 34.0960312,14.9052954 34.7740181,15.3979936 L35.6987977,17.1245193 C36.8079787,16.7567305 37.979551,17.6213812 38.8419392,16.7567305 L38.8419392,13.7936016 C38.0419425,13.2370608 36.6235773,13.1135393 36.4987945,11.9421666 C36.1299918,10.7069513 36.7455872,9.65910012 37.4859655,8.91658306 C38.3497402,8.54740635 39.3355248,8.23929647 39.3355248,7.12760271 C39.9511202,5.70779906 42.3566564,5.46353176 43.3438274,6.45031612" id="Fill-26" fill="#1A1919" mask="url(#mask-2)"></path>
                <path d="M42.9736383,7.31496682 C43.281436,7.92979871 42.7878505,8.85551624 43.4048324,9.35099024 C44.329612,9.22608082 45.0075989,9.78123376 45.438793,10.3988414 C45.5621893,11.0775159 45.438793,12.0046213 44.8842025,12.4973195 C44.329612,13.1746061 42.9112469,12.4348648 42.9112469,13.5465586 L42.8502419,17.1245193 C43.0346432,18.1737584 44.329612,17.6796722 45.0075989,17.8642606 C45.930992,17.8018059 47.1039509,18.0516247 48.027344,17.6796722 C48.5209295,17.0634525 48.5209295,16.0752802 49.5081006,16.0128255 C50.3704888,15.8920798 50.9874707,16.0752802 51.5420611,16.8164094 C51.5420611,17.3118834 51.8498589,17.6796722 52.2824394,17.7421269 C53.0214312,17.6213812 53.5774082,17.98917 54.0086023,18.2986678 C54.5008013,18.8510449 54.2540086,19.5324952 54.2540086,20.1501028 C54.0086023,21.2617966 52.8994213,21.4422213 51.9108638,21.6920401 C51.7264625,22.4942361 51.2342634,23.1729106 50.5562766,23.4185658 C49.8782897,23.5434752 49.0769065,23.3561111 48.6443259,22.9258675 C48.1535133,22.4942361 48.5209295,21.6920401 47.9039476,21.3839302 L43.220431,21.3839302 L42.9112469,22.1264473 L43.0346432,26.2595609 C43.7140166,26.8757807 45.1920002,26.5662829 45.316783,27.8014982 C45.316783,28.417718 45.1309952,29.0353256 44.6998011,29.3448234 C44.329612,30.02211 43.1580396,29.4072781 43.1580396,30.3316078 C43.3438274,31.0741248 42.9112469,31.6889567 42.6034491,32.2454975 C41.8630709,32.8631052 41.0630741,32.4911527 40.197913,32.3676312 C39.2745198,31.8735451 40.075903,30.4537414 39.088732,30.02211 C38.4731366,29.9596553 37.7951497,29.6529333 37.6093619,29.0353256 C37.4249606,28.3552633 37.4249606,27.4309336 37.7951497,26.9368475 C38.2887352,26.3192399 39.3355248,26.6287376 39.4589211,25.7668627 C39.644709,24.4678048 39.1511234,22.9883222 39.644709,21.7517191 C39.644709,21.5671307 39.4589211,21.2617966 39.2135149,21.2617966 C37.7951497,21.3839302 36.2520017,21.2617966 34.835023,21.3839302 C34.4648339,22.1861262 34.4648339,23.1729106 33.5414408,23.4810205 C32.6776661,23.6031541 31.8138914,23.3561111 31.3826973,22.6788245 C31.137291,22.2471931 31.5060937,21.5671307 31.0748996,21.2617966 C30.089115,21.3839302 29.101944,21.2617966 28.7317549,20.3971459 C28.4239571,19.7781504 28.6083585,18.9134996 28.9175427,18.3583467 C29.4707467,17.6213812 30.7671019,18.3583467 31.137291,17.3118834 C31.259301,16.6942758 31.6918815,16.2001896 32.1840806,15.9517587 C32.738671,15.7671704 33.6024457,15.7671704 33.9726349,16.2626444 C34.4648339,16.8164094 34.2804326,18.0516247 35.452005,17.8642606 C36.7455872,17.6213812 38.0419425,17.9267153 39.3355248,17.6796722 C39.5823175,16.2001896 39.4589211,14.5333429 39.4589211,13.0538604 C38.6575379,12.5583864 37.3015642,12.6194532 37.2391728,11.3231711 C37.1171629,10.5834298 37.4249606,9.90614318 37.7951497,9.41205706 C38.3497402,8.91658306 39.5823175,9.471736 39.5823175,8.30175118 C39.7057139,7.49955518 40.1382945,6.81810494 40.9382912,6.57244976 C41.741061,6.57244976 42.5410577,6.57244976 42.9736383,7.31496682" id="Fill-27" fill="#FFFFFE" mask="url(#mask-2)"></path>
                <path d="M29.4707467,43.2916532 C29.7189259,43.2291985 29.7189259,43.0446101 30.0267236,43.2291985 C31.259301,44.5865474 30.9515032,46.8723896 31.3826973,48.7238247 C31.259301,48.8459584 31.4450888,49.0916135 31.198296,49.1540682 C30.6437055,48.0423745 30.7671019,46.5004372 30.2735164,45.3262887 C29.162949,44.6490021 28.9175427,43.4123989 28.8565377,42.2424141 C29.0395526,42.4894572 29.162949,42.9821554 29.4707467,43.2916532" id="Fill-28" fill="#1A1919" mask="url(#mask-2)"></path>
            </g>
            <path d="M58.6465556,74.6862503 C57.2932487,89.0230095 45.2231398,98.7572442 30.4464171,103.508776 C15.6710825,98.7572442 3.90078303,89.7137363 2.54747619,75.3797623 L2.51,34.4207764 C2.51,34.4207764 4.72525919,35.3677406 5.32765423,35.5515631 C15.5947421,38.693256 30.433925,34.2327762 30.433925,34.2327762 C30.433925,34.2327762 45.3980286,38.693256 55.8538855,35.5515631 C56.4937567,35.3635628 58.734,34.4834432 58.734,34.4834432 L58.6465556,74.6862503 Z" id="Stroke-30" stroke="#1A1919" stroke-width="0.514"></path>
        </g>
    </g>
</svg>