<?xml version="1.0" encoding="UTF-8" standalone="no"?>
<svg width="100%" height="100%" viewBox="0 0 188 34" version="1.1" xmlns="http://www.w3.org/2000/svg" style="fill-rule:evenodd;clip-rule:evenodd;stroke-linejoin:round;stroke-miterlimit:2;">
    <g transform="matrix(0.631825,0,0,0.631825,0,-10.6932)">
        <g id="b">
            <g>
                <path d="M42.14,64.306L9.2,64.306C7.9,64.306 6.84,63.246 6.84,61.946L6.84,57.916C6.84,56.616 7.9,55.556 9.2,55.556L42.14,55.556C43.44,55.556 44.5,56.616 44.5,57.916L44.5,61.946C44.5,63.246 43.44,64.306 42.14,64.306" style="fill:rgb(150,149,150);fill-rule:nonzero;"/>
                <path d="M4.03,47.296L14.14,37.185C15.06,36.265 15.06,34.765 14.14,33.845L4.03,23.735C2.54,22.245 0,23.305 0,25.405L0,45.626C0,47.726 2.54,48.786 4.03,47.296" style="fill:rgb(11,72,144);fill-rule:nonzero;"/>
                <path d="M42.14,23.005L9.21,23.005L17.96,31.755L42.14,31.755C43.44,31.755 44.5,30.695 44.5,29.395L44.5,25.365C44.5,24.065 43.44,23.005 42.14,23.005" style="fill:rgb(76,73,73);fill-rule:nonzero;"/>
                <path d="M42.14,39.276L17.95,39.276L9.2,48.026L42.14,48.026C43.44,48.026 44.5,46.966 44.5,45.666L44.5,41.636C44.5,40.336 43.44,39.276 42.14,39.276" style="fill:rgb(150,149,150);fill-rule:nonzero;"/>
            </g>
        </g>
        <g id="c">
            <g>
                <g>
                    <path d="M67.54,27.835L59.59,27.835L59.59,23.155L81.24,23.155L81.24,27.835L73.29,27.835L73.29,48.006L67.54,48.006L67.54,27.835Z" style="fill:rgb(11,72,144);fill-rule:nonzero;"/>
                    <path d="M103.96,43.386L103.96,48.006L84.72,48.006L84.72,23.155L103.5,23.155L103.5,27.765L90.43,27.765L90.43,33.165L101.97,33.165L101.97,37.635L90.43,37.635L90.43,43.386L103.96,43.386Z" style="fill:rgb(11,72,144);fill-rule:nonzero;"/>
                    <g>
                        <path d="M188.151,23.155L199.441,23.155C207.571,23.155 213.141,28.055 213.141,35.585C213.141,43.116 207.571,48.006 199.441,48.006L188.151,48.006L188.151,23.155ZM199.161,43.286C204.091,43.286 207.321,40.336 207.321,35.585C207.321,30.835 204.091,27.885 199.161,27.885L193.911,27.885L193.911,43.296L199.161,43.296L199.161,43.286Z" style="fill:rgb(11,72,144);fill-rule:nonzero;"/>
                        <path d="M246.131,27.835L238.181,27.835L238.181,23.155L259.841,23.155L259.841,27.835L251.881,27.835L251.881,48.006L246.131,48.006L246.131,27.835Z" style="fill:rgb(11,72,144);fill-rule:nonzero;"/>
                        <path d="M67.64,64.196L67.62,57.856L64.47,63.146L63.89,63.146L60.74,57.896L60.74,64.196L59.54,64.196L59.54,55.496L60.57,55.496L64.21,61.616L67.8,55.496L68.82,55.496L68.83,64.196L67.64,64.196Z" style="fill:rgb(76,73,73);fill-rule:nonzero;"/>
                        <path d="M77.79,63.116L77.79,64.196L71.45,64.196L71.45,55.496L77.61,55.496L77.61,56.576L72.7,56.576L72.7,59.256L77.08,59.256L77.08,60.306L72.7,60.306L72.7,63.116L77.79,63.116Z" style="fill:rgb(76,73,73);fill-rule:nonzero;"/>
                        <path d="M79.01,63.206L79.47,62.236C80.12,62.816 81.23,63.246 82.35,63.246C83.86,63.246 84.51,62.666 84.51,61.906C84.51,59.776 79.22,61.126 79.22,57.886C79.22,56.546 80.27,55.396 82.56,55.396C83.58,55.396 84.64,55.666 85.36,56.166L84.95,57.156C84.19,56.666 83.33,56.446 82.56,56.446C81.08,56.446 80.44,57.066 80.44,57.826C80.44,59.956 85.73,58.626 85.73,61.816C85.73,63.146 84.66,64.296 82.35,64.296C81.02,64.296 79.71,63.846 79.01,63.206" style="fill:rgb(76,73,73);fill-rule:nonzero;"/>
                        <path d="M86.75,63.206L87.21,62.236C87.86,62.816 88.97,63.246 90.09,63.246C91.6,63.246 92.25,62.666 92.25,61.906C92.25,59.776 86.96,61.126 86.96,57.886C86.96,56.546 88.01,55.396 90.3,55.396C91.32,55.396 92.38,55.666 93.1,56.166L92.69,57.156C91.93,56.666 91.07,56.446 90.3,56.446C88.82,56.446 88.18,57.066 88.18,57.826C88.18,59.956 93.47,58.626 93.47,61.816C93.47,63.146 92.4,64.296 90.09,64.296C88.76,64.296 87.45,63.846 86.75,63.206" style="fill:rgb(76,73,73);fill-rule:nonzero;"/>
                        <path d="M101.63,63.116L101.63,64.196L95.29,64.196L95.29,55.496L101.45,55.496L101.45,56.576L96.54,56.576L96.54,59.256L100.92,59.256L100.92,60.306L96.54,60.306L96.54,63.116L101.63,63.116Z" style="fill:rgb(76,73,73);fill-rule:nonzero;"/>
                        <path d="M111.16,55.496L111.16,64.196L110.13,64.196L104.9,57.706L104.9,64.196L103.65,64.196L103.65,55.496L104.67,55.496L109.91,61.986L109.91,55.496L111.16,55.496Z" style="fill:rgb(76,73,73);fill-rule:nonzero;"/>
                        <path d="M123.51,64.336L122.35,63.176C121.59,63.906 120.59,64.296 119.43,64.296C117.66,64.296 116.37,63.366 116.37,62.036C116.37,60.966 116.98,60.216 118.49,59.366C117.7,58.586 117.44,58.026 117.44,57.376C117.44,56.206 118.36,55.426 119.8,55.426C121.12,55.426 121.97,56.106 121.97,57.236C121.97,58.116 121.45,58.756 120.11,59.516L122.27,61.656C122.51,61.206 122.69,60.686 122.81,60.076L123.77,60.386C123.62,61.156 123.36,61.826 123.01,62.376L124.18,63.546L123.51,64.346L123.51,64.336ZM121.64,62.486L119.16,60.026C117.94,60.706 117.55,61.216 117.55,61.916C117.55,62.746 118.34,63.306 119.51,63.306C120.34,63.306 121.08,63.036 121.64,62.486M118.56,57.346C118.56,57.796 118.73,58.116 119.45,58.836C120.6,58.186 120.97,57.796 120.97,57.246C120.97,56.696 120.56,56.286 119.81,56.286C119.06,56.286 118.56,56.716 118.56,57.346" style="fill:rgb(76,73,73);fill-rule:nonzero;"/>
                        <path d="M129.04,55.496L132.72,55.496C135.53,55.496 137.43,57.266 137.43,59.846C137.43,62.426 135.52,64.196 132.72,64.196L129.04,64.196L129.04,55.496ZM132.64,63.116C134.8,63.116 136.18,61.796 136.18,59.846C136.18,57.896 134.8,56.576 132.64,56.576L130.28,56.576L130.28,63.116L132.64,63.116Z" style="fill:rgb(76,73,73);fill-rule:nonzero;"/>
                        <path d="M138.63,59.846C138.63,57.296 140.6,55.396 143.28,55.396C145.96,55.396 147.91,57.286 147.91,59.846C147.91,62.406 145.94,64.296 143.28,64.296C140.62,64.296 138.63,62.396 138.63,59.846M146.66,59.846C146.66,57.916 145.21,56.506 143.28,56.506C141.35,56.506 139.88,57.926 139.88,59.846C139.88,61.766 141.33,63.186 143.28,63.186C145.23,63.186 146.66,61.766 146.66,59.846" style="fill:rgb(76,73,73);fill-rule:nonzero;"/>
                        <path d="M152.66,60.336L151.06,61.946L151.06,64.206L149.81,64.206L149.81,55.496L151.06,55.496L151.06,60.356L155.801,55.496L157.221,55.496L153.491,59.416L157.461,64.206L156.001,64.206L152.66,60.336Z" style="fill:rgb(76,73,73);fill-rule:nonzero;"/>
                        <path d="M158.581,60.446L158.581,55.496L159.831,55.496L159.831,60.396C159.831,62.326 160.721,63.196 162.291,63.196C163.861,63.196 164.761,62.326 164.761,60.396L164.761,55.496L165.971,55.496L165.971,60.446C165.971,62.966 164.591,64.296 162.281,64.296C159.971,64.296 158.591,62.966 158.591,60.446" style="fill:rgb(76,73,73);fill-rule:nonzero;"/>
                        <path d="M176.611,64.196L176.601,57.856L173.441,63.146L172.871,63.146L169.721,57.896L169.721,64.196L168.521,64.196L168.521,55.496L169.541,55.496L173.181,61.616L176.771,55.496L177.801,55.496L177.811,64.196L176.611,64.196Z" style="fill:rgb(76,73,73);fill-rule:nonzero;"/>
                        <path d="M186.761,63.116L186.761,64.196L180.431,64.196L180.431,55.496L186.591,55.496L186.591,56.576L181.671,56.576L181.671,59.256L186.051,59.256L186.051,60.306L181.671,60.306L181.671,63.116L186.761,63.116Z" style="fill:rgb(76,73,73);fill-rule:nonzero;"/>
                        <path d="M196.291,55.496L196.291,64.196L195.271,64.196L190.031,57.706L190.031,64.196L188.781,64.196L188.781,55.496L189.801,55.496L195.041,61.986L195.041,55.496L196.291,55.496Z" style="fill:rgb(76,73,73);fill-rule:nonzero;"/>
                        <path d="M200.641,56.576L197.651,56.576L197.651,55.496L204.871,55.496L204.871,56.576L201.881,56.576L201.881,64.206L200.641,64.206L200.641,56.576Z" style="fill:rgb(76,73,73);fill-rule:nonzero;"/>
                        <rect x="206.231" y="55.496" width="1.25" height="8.7" style="fill:rgb(76,73,73);"/>
                        <path d="M216.431,63.116L216.431,64.196L210.091,64.196L210.091,55.496L216.251,55.496L216.251,56.576L211.341,56.576L211.341,59.256L215.721,59.256L215.721,60.306L211.341,60.306L211.341,63.116L216.431,63.116Z" style="fill:rgb(76,73,73);fill-rule:nonzero;"/>
                        <path d="M224.281,64.206L222.401,61.536C222.221,61.546 222.041,61.556 221.851,61.556L219.691,61.556L219.691,64.206L218.441,64.206L218.441,55.506L221.841,55.506C224.111,55.506 225.481,56.646 225.481,58.536C225.481,59.876 224.781,60.846 223.561,61.286L225.631,64.206L224.271,64.206L224.281,64.206ZM224.251,58.526C224.251,57.286 223.421,56.576 221.821,56.576L219.701,56.576L219.701,60.496L221.821,60.496C223.421,60.496 224.251,59.776 224.251,58.526" style="fill:rgb(76,73,73);fill-rule:nonzero;"/>
                        <path d="M233.851,63.116L233.851,64.196L227.511,64.196L227.511,55.496L233.671,55.496L233.671,56.576L228.761,56.576L228.761,59.256L233.141,59.256L233.141,60.306L228.761,60.306L228.761,63.116L233.851,63.116Z" style="fill:rgb(76,73,73);fill-rule:nonzero;"/>
                        <path d="M243.381,55.496L243.381,64.196L242.351,64.196L237.121,57.706L237.121,64.196L235.871,64.196L235.871,55.496L236.891,55.496L242.131,61.986L242.131,55.496L243.381,55.496Z" style="fill:rgb(76,73,73);fill-rule:nonzero;"/>
                        <path d="M273.931,23.135L268.251,23.135L257.161,48.006L263.061,48.006L265.261,42.676L265.281,42.676L271.051,28.785L275.001,38.305L268.791,38.305L271.741,42.676L276.811,42.676L279.011,48.006L285.051,48.006L273.931,23.135Z" style="fill:rgb(11,72,144);fill-rule:nonzero;"/>
                        <path d="M174.821,23.135L169.131,23.135L158.051,48.006L163.951,48.006L166.151,42.676L166.161,42.676L171.941,28.785L175.881,38.305L169.681,38.305L172.621,42.676L177.701,42.676L179.901,48.006L185.941,48.006L174.821,23.135Z" style="fill:rgb(11,72,144);fill-rule:nonzero;"/>
                        <path d="M229.591,23.135L223.911,23.135L212.821,48.006L218.721,48.006L220.921,42.676L220.931,42.676L226.711,28.785L230.651,38.305L224.451,38.305L227.401,42.676L232.471,42.676L234.671,48.006L240.711,48.006L229.591,23.135Z" style="fill:rgb(11,72,144);fill-rule:nonzero;"/>
                        <path d="M151.06,40.006C154.291,38.615 156.181,35.885 156.181,32.155C156.181,26.575 152.02,23.135 145.38,23.135L134.61,23.135L134.61,48.006L140.37,48.006L140.37,27.825L145.06,27.825C148.58,27.825 150.35,29.425 150.35,32.155C150.35,34.885 148.57,36.495 145.06,36.495L142.5,36.495L145.66,41.076L150.45,48.006L156.631,48.006L151.05,40.016L151.06,40.006Z" style="fill:rgb(11,72,144);fill-rule:nonzero;"/>
                        <path d="M124.99,40.006C128.22,38.615 130.11,35.885 130.11,32.155C130.11,26.575 125.95,23.135 119.31,23.135L108.54,23.135L108.54,48.006L114.3,48.006L114.3,27.825L118.99,27.825C122.51,27.825 124.28,29.425 124.28,32.155C124.28,34.885 122.5,36.495 118.99,36.495L116.43,36.495L119.59,41.076L124.38,48.006L130.56,48.006L124.98,40.016L124.99,40.006Z" style="fill:rgb(11,72,144);fill-rule:nonzero;"/>
                    </g>
                </g>
            </g>
        </g>
    </g>
</svg>
